# xmcd
#
# Track frame offsets: 
#        150
#        19075
#        40658
#        62145
#        82853
#        104748
#        123870
#        140138
#        168888
#        198878
#
# Disc length: 2964 seconds
#
# Revision: 1
# Processed by: cddbd v1.5.2PL0 Copyright (c) Steve Scherf et al.
# Submitted via: ExactAudioCopyFreeDBPlugin 1.0
#
DISCID=7f0b920a
DTITLE=VariousArtists - MườiThương
DYEAR=1988
DGENRE=Vietnamese
TTITLE0=Hương Lan - Mười Thương
TTITLE1=Tuấn Vũ - Cánh Buồm Chuyển Bến
TTITLE2=Thanh Tuyền - Một lần xa bến
TTITLE3=Hương Lan - Thương Về Miền Đất Lạnh
TTITLE4=Tuấn Vũ - Lá Thư Đô Thị
TTITLE5=Hương Lan - Làng Tôi
TTITLE6=Thanh Tuyền - Trường Cũ Tình Xưa
TTITLE7=Tuấn Vũ - Mưa Chiều Kỷ Niệm
TTITLE8=Hương Lan - Hai Kỷ Niệm Một Chuyến Đi
TTITLE9=Thanh Tuyền - Biển Dâu
EXTD=
EXTT0=
EXTT1=
EXTT2=
EXTT3=
EXTT4=
EXTT5=
EXTT6=
EXTT7=
EXTT8=
EXTT9=
PLAYORDER=
